<svg xmlns="http://www.w3.org/2000/svg" xmlns:xlink="http://www.w3.org/1999/xlink" width="94.95" height="33.04" viewBox="0 0 94.95 33.04"><defs><linearGradient id="bd327824-c7ad-4d82-96b7-a1af6dc0f4d9" x1="16.5" y1="33.04" x2="16.5" gradientUnits="userSpaceOnUse"><stop offset="0" stop-color="#00d4d4"/><stop offset="1" stop-color="#2e69fe"/></linearGradient></defs><title>header_log</title><g id="b646df1e-2b29-470f-ba3c-bfb0a3c1f571" data-name="Layer 2"><g id="b5a1404f-bd17-4881-a06c-6174ab221712" data-name="Layer 1"><path d="M16.52,0a16.94,16.94,0,0,0-2.66.21l1,6.17h1.66V0ZM11.66.73a16.14,16.14,0,0,0-2.49,1L12,7.32l.37-.17h.2a10.37,10.37,0,0,1,1-.36l-1.84-6ZM7.22,2.86A16.7,16.7,0,0,0,5.15,4.54l4.3,4.53.25-.23h.45l0,0h0L10.74,8,7.22,2.86ZM3.62,6.2A15.56,15.56,0,0,0,2.13,8.41l5.44,3.07h.15v0h0c.14-.24.3-.47.46-.7h0l0,0h.06l.21-.26L3.62,6.2ZM1.15,10.45A16.54,16.54,0,0,0,.37,13l6.11,1.32A10.45,10.45,0,0,1,7,12.75l-5.81-2.3ZM.05,15.26c0,.41,0,.84,0,1.26s0,.93.06,1.39l6.23-.52a2,2,0,0,1,0-.23h0v0h0v0h0v0h0v0h0v0h0v0h0v0h0v0h0v0h0v0h0v0h0v0h0v0h0v0h0c0-.22,0-.43,0-.65L.05,15.26ZM6.5,18.78.4,20.15a16.5,16.5,0,0,0,.8,2.56L7,20.36l-.19-.51h0v0H6.66v0h0v0h0v0h0v0h0v0h0v0h0Zm1.11,2.85L2.19,24.74a16.48,16.48,0,0,0,1.51,2.2L8.55,23h0a9.66,9.66,0,0,1-.86-1.23h0l0,0H7.61ZM9.51,24,5.24,28.59a16.74,16.74,0,0,0,2.09,1.66l3.48-5.19a9.36,9.36,0,0,1-.94-.72H9.72L9.51,24ZM12,25.76,9.29,31.38a17.12,17.12,0,0,0,2.49,1l1.79-6-.37-.12h-.63L12,25.76Zm2.91.91L14,32.85a17.73,17.73,0,0,0,2.53.19h.13l0-6.25H14.94Zm4.68-.36-.34.1h-.35a7,7,0,0,1-.93.18l.9,6.19a16.73,16.73,0,0,0,2.61-.6l-1.89-6ZM22.36,25a6.67,6.67,0,0,1-1,.59h-.2l-.27.14,2.68,5.64a16.24,16.24,0,0,0,2.32-1.34L22.36,25Zm2.23-2.09h0v0h0v0H24.4l0,0h0a10.06,10.06,0,0,1-.84.89h-.06l4.23,4.6a17.57,17.57,0,0,0,1.81-2l-4.91-3.87Zm1.51-2.66a9,9,0,0,1-.62,1.33h0l0,0h-.08l5.39,3.16a16.74,16.74,0,0,0,1.17-2.41L26.1,20.21Zm.66-3c0,.15,0,.3,0,.46h0v0h0v0h0v0h-.05v0h0v0h0v0h0v0h-.09v0h0v0h0a.31.31,0,0,0,0,.08L32.6,20.3a15.85,15.85,0,0,0,.4-2.65l-6.24-.42Zm5.85-4.47-6.09,1.42v0h0v0h0v0h0v0h0v0h0c0,.21.07.42.1.63h0v0h0v0h0v0h0a3.42,3.42,0,0,1,0,.45L33,15.4a17,17,0,0,0-.39-2.64ZM30.78,8.18l-5.39,3.16.19.35h.11v0h0v0h0v0h0l.05.09h0l0,0h0v0h0v0h0v0h0v0h0v0H26v0h0c.05.11.1.24.15.36l5.83-2.24a16.3,16.3,0,0,0-1.16-2.42ZM27.7,4.36,23.47,9a10,10,0,0,1,1.13,1.22l4.91-3.86a16,16,0,0,0-1.81-2ZM23.63,1.61,20.94,7.25a10.66,10.66,0,0,1,1.43.83h0L25.94,3a16.14,16.14,0,0,0-2.31-1.34ZM18.92.17,18,6.36a10.34,10.34,0,0,1,1.16.24h.34l.12,0,1.89-6a16.35,16.35,0,0,0-2.6-.6ZM16.52,0V6.25h.09L16.67,0Z" fill="url(#bd327824-c7ad-4d82-96b7-a1af6dc0f4d9)"/><path d="M16.52,3.13a13.39,13.39,0,0,0,0,26.78" fill="none" stroke="#2b2936" stroke-miterlimit="10" stroke-width="6.25"/><path d="M43.39.81,52.59,13,61.8.81h5.93V32.23h-6.2V10.81L52.68,22.19H52.5L43.65,10.81V32.23h-6.2V.81Z" fill="#2b2936"/><path d="M95,32.23H73.31V27L85.63,15A6.78,6.78,0,0,0,88,10a3.63,3.63,0,0,0-1.2-2.82,4.36,4.36,0,0,0-3.05-1.09,4,4,0,0,0-3.17,1.22,4.52,4.52,0,0,0-1.08,3.12l.13,1.73H73.22a10.54,10.54,0,0,1-.13-1.82A9.74,9.74,0,0,1,76,3,10.67,10.67,0,0,1,83.71.14a11,11,0,0,1,7.79,2.7,9.08,9.08,0,0,1,2.92,7,11.76,11.76,0,0,1-1.15,5.35,17.6,17.6,0,0,1-4,4.82L82.11,26.3H95Z" fill="#2b2936"/></g></g></svg>