<svg id="Layer_1" data-name="Layer 1" xmlns="http://www.w3.org/2000/svg" viewBox="0 0 371 106"><defs><style>.cls-1,.cls-2{fill:none;stroke-linecap:round;stroke-width:6.37px;}.cls-1{stroke:#24d24e;}.cls-2{stroke:#f73173;}.cls-3{fill:#fff;stroke:#fff;}</style></defs><title>exberry-09</title><line class="cls-1" x1="123.32" y1="35.29" x2="98.04" y2="61.46"/><line class="cls-1" x1="104.4" y1="54.87" x2="82.22" y2="77.84"/><line class="cls-2" x1="81.11" y1="35.5" x2="92.54" y2="46.13"/><line class="cls-2" x1="112.24" y1="67.42" x2="123.43" y2="77.7"/><path class="cls-3" d="M59.54,65.46l4.84,2.59a25.08,25.08,0,0,1-5.5,7.6A22,22,0,0,1,51.78,80a24.89,24.89,0,0,1-8.92,1.5q-11,0-17.21-7.21a24.68,24.68,0,0,1-.94-31.59q6.65-8.55,17.86-8.54a22.25,22.25,0,0,1,18.37,8.74q4.88,6.18,4.92,15.36H25.41a18.37,18.37,0,0,0,5,12.92,15.91,15.91,0,0,0,12,5A18.68,18.68,0,0,0,49.1,75a17.56,17.56,0,0,0,5.53-3.18A26.6,26.6,0,0,0,59.54,65.46Zm0-12.11a19.31,19.31,0,0,0-3.37-7.42,16.16,16.16,0,0,0-5.87-4.48,18.19,18.19,0,0,0-7.68-1.7A16.48,16.48,0,0,0,31.24,44Q27.79,47.14,26,53.35Z"/><path class="cls-3" d="M146.13,73.21a31,31,0,0,1-4.43-12.12V18.41h5.75V43.55a24.34,24.34,0,0,1,8.17-6.67,22.44,22.44,0,0,1,9.9-2.2,22,22,0,0,1,16.31,6.94,23.23,23.23,0,0,1,6.77,16.84,22.83,22.83,0,0,1-6.81,16.64A22.25,22.25,0,0,1,165.36,82,25.32,25.32,0,0,1,155,79.88,25.83,25.83,0,0,1,146.13,73.21Zm18.73,3.24a17.28,17.28,0,0,0,9-2.4,17.69,17.69,0,0,0,6.51-6.68,18.22,18.22,0,0,0,2.42-9.12,18.52,18.52,0,0,0-2.44-9.13,17.61,17.61,0,0,0-6.57-6.78,17.38,17.38,0,0,0-8.81-2.4,18.31,18.31,0,0,0-9,2.4,16.77,16.77,0,0,0-6.57,6.53,18.59,18.59,0,0,0-2.3,9.22,17.89,17.89,0,0,0,5.17,13.1,17,17,0,0,0,12.59,5.26Z"/><path class="cls-3" d="M236.91,65.94l4.85,2.58a25,25,0,0,1-5.51,7.6,22,22,0,0,1-7.1,4.38,24.8,24.8,0,0,1-8.91,1.5q-11,0-17.21-7.21a24.27,24.27,0,0,1-6.21-16.29,24,24,0,0,1,5.26-15.28A21.53,21.53,0,0,1,220,34.72a22.2,22.2,0,0,1,18.36,8.75q4.89,6.15,4.93,15.36H202.78a18.46,18.46,0,0,0,5,12.92,15.92,15.92,0,0,0,11.95,5,19.14,19.14,0,0,0,6.7-1.21A17.62,17.62,0,0,0,232,72.35,26.66,26.66,0,0,0,236.91,65.94Zm0-12.12a18.91,18.91,0,0,0-3.37-7.41,16,16,0,0,0-5.87-4.48A18,18,0,0,0,220,40.22a16.53,16.53,0,0,0-11.38,4.28q-3.45,3.12-5.22,9.32Z"/><path class="cls-3" d="M254,61.33V55.91a24.27,24.27,0,0,1,1.89-6.61q2.87-7.06,7.72-10.35c3.23-2.19,5.92-3.29,8.05-3.29a10.31,10.31,0,0,1,5.09,1.57l-3,4.84q-3.83-1.4-7.58,2.26a20,20,0,0,0-5.2,8q-1.07,3.83-1.07,14.34V81.9H254Z"/><path class="cls-3" d="M285.38,61.33V55.91a24.27,24.27,0,0,1,1.89-6.61Q290.15,42.24,295,39c3.23-2.19,5.92-3.29,8.05-3.29a10.35,10.35,0,0,1,5.1,1.57l-3,4.84q-3.83-1.4-7.58,2.26a20,20,0,0,0-5.2,8q-1.07,3.83-1.06,14.34V81.9h-5.92Z"/><path class="cls-3" d="M315.4,35.83h6.12L337,70.54l15-34.71h6.2L331.3,97.32h-6.12l8.67-19.84Z"/></svg>