<svg width="15" height="15" viewBox="0 0 15 15" fill="none" xmlns="http://www.w3.org/2000/svg">
<path d="M0.272837 9.83447L0.272914 9.83442L0.269352 9.8288C0.239027 9.78089 0.242618 9.71779 0.295307 9.66738L1.91903 8.43674L2.03109 8.3518L2.01671 8.21192C2.01568 8.20191 2.01465 8.19195 2.01363 8.18203C1.9888 7.94101 1.96659 7.72543 1.96659 7.5C1.96659 7.26742 1.99046 7.04365 2.02795 6.80062L2.05068 6.6533L1.93188 6.56326L0.308058 5.33254C0.278428 5.30439 0.26201 5.27232 0.256377 5.24494C0.250882 5.21823 0.254755 5.19426 0.269352 5.1712L0.269427 5.17125L0.272837 5.16553L1.81353 2.58153C1.85133 2.52378 1.91824 2.49879 1.99088 2.52243L3.90105 3.27029L4.03345 3.32213L4.14568 3.23483C4.5083 2.95278 4.93648 2.72573 5.38456 2.54421L5.51793 2.49018L5.5382 2.34772L5.81974 0.369336C5.83821 0.29155 5.89693 0.25 5.95923 0.25H9.04478C9.11039 0.25 9.16727 0.295062 9.18462 0.359292L9.46581 2.33522L9.48631 2.47924L9.62164 2.53258C10.0733 2.71062 10.4781 2.94865 10.8615 3.23724L10.973 3.32118L11.103 3.27029L13.0131 2.52243C13.0858 2.49879 13.1527 2.52377 13.1905 2.58152L14.7312 5.16553L14.7311 5.16558L14.7347 5.1712C14.7484 5.19294 14.7536 5.21999 14.7475 5.25049C14.7412 5.28165 14.7241 5.30973 14.7019 5.32803L13.0721 6.56326L12.9601 6.6482L12.9744 6.78808L12.9775 6.81796C13.0024 7.05898 13.0246 7.27457 13.0246 7.5C13.0246 7.72943 13.0121 7.96508 12.9764 8.18493L12.9523 8.33339L13.0721 8.42424L14.696 9.65496C14.7256 9.68311 14.742 9.71518 14.7476 9.74256C14.7531 9.76927 14.7493 9.79324 14.7347 9.8163L14.7346 9.81625L14.7312 9.82197L13.1905 12.406C13.1527 12.4637 13.0858 12.4887 13.0131 12.4651L11.103 11.7172L10.973 11.6663L10.8615 11.7503C10.4797 12.0376 10.0615 12.2767 9.61945 12.4558L9.48609 12.5098L9.46581 12.6523L9.18427 14.6307C9.1658 14.7085 9.10708 14.75 9.04478 14.75H5.95923C5.89362 14.75 5.83674 14.7049 5.8194 14.6407L5.5382 12.6648L5.5177 12.5208L5.38237 12.4674C4.93068 12.2894 4.52592 12.0513 4.14254 11.7628L4.03102 11.6788L3.90105 11.7297L1.99088 12.4776C1.91824 12.5012 1.85133 12.4762 1.81353 12.4185L0.272837 9.83447ZM9.95046 7.5C9.95046 6.18035 8.84191 5.1125 7.50201 5.1125C6.1621 5.1125 5.05355 6.18035 5.05355 7.5C5.05355 8.81965 6.1621 9.8875 7.50201 9.8875C8.84191 9.8875 9.95046 8.81965 9.95046 7.5Z" stroke="white" stroke-opacity="0.5" stroke-width="0.5"/>
</svg>
